/* XPM */
static char * empty_xpm[] = {
"120 120 46 1",
" 	c #25313A",
".	c #243039",
"+	c #243038",
"@	c #232F38",
"#	c #232F37",
"$	c #222F37",
"%	c #222F36",
"&	c #212E35",
"*	c #233038",
"=	c #233037",
"-	c #253139",
";	c #212E36",
">	c #202D35",
",	c #1F2D35",
"'	c #1E2C34",
")	c #222F38",
"!	c #233039",
"~	c #24313A",
"{	c #202E36",
"]	c #202E37",
"^	c #212F37",
"/	c #212F38",
"(	c #1F2D36",
"_	c #223038",
":	c #223039",
"<	c #23303A",
"[	c #23313A",
"}	c #24313B",
"|	c #222F39",
"1	c #243139",
"2	c #212E37",
"3	c #1F2D34",
"4	c #222E36",
"5	c #202D34",
"6	c #1F2C33",
"7	c #1E2C33",
"8	c #27323A",
"9	c #27323B",
"0	c #26323B",
"a	c #212F35",
"b	c #1F2C34",
"c	c #29333C",
"d	c #26323A",
"e	c #202E35",
"f	c #26313A",
"g	c #26313B",
"                                                                                                                        ",
"                                                                                                                        ",
"                                                                                                                        ",
"                                                                                                                        ",
"                                                                                                                        ",
"                                                                                                                        ",
"                                                                                                                        ",
"                                                                                                                        ",
"                                                                                                ...   ..++++++++..   ...",
"                                                                                               .@#@...@#$$$$$$$$#@...@#@",
"                                                                                               .###...#%%%%%%%%%%#...###",
"                                                                                               .@#@...@#$$$$$$$$#@...@#@",
"                                                                                                ...   ..++++++++..   ...",
"                                                                                                                        ",
"                                                                                                                        ",
"                                                                                                                        ",
"                                                                                                                        ",
"                                                                                                                        ",
"                                                                                                                        ",
"                                                                                                                        ",
"                                                                                                                        ",
"                                                                                                                        ",
"                                                                                                                        ",
"                                                                                                                        ",
"                                                                                                                        ",
"                                                                                                                        ",
"                                                                                                                        ",
"                                                                                                                        ",
"                                                                                                                        ",
"                                                                                                                        ",
"                                                                                                                        ",
"                                                                                                                        ",
"                                                                                                                        ",
"                                                                                                                        ",
"                                                                                                                        ",
"                                                                                                                        ",
"                                                                                                                        ",
"                                                                                                                        ",
"++++..                                                                                                                  ",
"$$$$#@.                                                                                                                 ",
"&&&&%#*.                                                                                                                ",
"&&&&&%=*++..                                                                                                            ",
"&&&&&&%%$$#@.                                                                                                           ",
"&&&&&&&&&&%#*.                                                                                                          ",
"&&&&&&&&&&&%=*.      ..++..                                                                                             ",
"&&&&&&&&&&&&%#@.    .@#$$#@.                                                                                            ",
"&&&&&&&&&&&%%%#.    .#%%%%#.                                    .......                                                 ",
"&&&&&&%%$$$$$#@.    .@#$$#@.                                   .@$$$$$@.-                                               ",
"&&&&&%=*+++++..      ..++..                                   .$;>>>>>;$.                                               ",
"&&&&%#*.                                                     .@;,''''',;@.                                              ",
"$$$$#@.                                                     .@;>,''''',;)!~                                             ",
"++++..                                                     .$;>{{{{{{{{])!!~                                            ",
"                                                          .@;,,{]^^^]]]]/)!!~                                           ",
"                                                          .$>''{^////]]]//)!!~                                          ",
"                                                          .$>''{^///](((]//)!!~                                         ",
"                                                          .@;,,{]///]](]]/)_:!~                                         ",
"                                                           .$;>{{]//^]]//:::!!~~                                        ",
"                                                            .@;>,(]//_::!<<<<[}}}                                       ",
"                                                             .@;>>]/|:!!<~}}}}}}~~1--                                   ",
"                                                              .$;;^)|:_!~~}}}}}~~!*+1-                                  ",
"                                                               .***@)^{^!~}}}}}~!$;$+-                                  ",
"                                                                111.@;{;_~~~<<<!);;;*-                                  ",
"                                                                   -+$;$!~~!))//2;;$.                                   ",
"                                                                   --+*.~~!${>>>{;#+-                                   ",
"                                                                    ---  ~*;>33>;@.-                                    ",
"                                                                          .$;>>;$.                                      ",
"                                                                          -+#$$@.                                       ",
"                                                                          --....                                        ",
"                                                                                                                        ",
"                                                                                                                        ",
"                                                                                                                        ",
"                                                                                                                        ",
"                                                                                                                        ",
"                                                                                                                        ",
"                                                                                                                        ",
"                                                                                                                        ",
"                                                                                                                        ",
"                                                                                                                        ",
"                                                                                                                        ",
"                                                                                                                        ",
"                                                                                                                        ",
"                                                                                                                        ",
"                                                                                                                        ",
"                                                                  ...                                                   ",
"                                                                 .@#@.                                                  ",
"                                                              11.@###.                                                  ",
"                                                         ..+++*@##$#@.                                                  ",
"                                                        .@#$$$;;;4#@.                                                   ",
"                                                       .*#%&&&>>>;@.                                                    ",
"                                                   ..++*=%&&555>;$.                                                     ",
"                                                  .@#$$%%&&5635;#.                                                      ",
"                                                 .@%&&&&&&555>;@.                                                       ",
"                  ...            ..++++++++++++++@$&5555555&%#+.                                                        ",
"                 .@#@.          .@#$$$$$$$$$$$$$$%&53777775%-890                                                        ",
"                 .###.         .*#%&&a&&&&&&&&&&&&&>>3bb77>#8cc9d                                                       ",
"                 .@#@.     ..++*=%&&&&&55555555555&%$$;e>>;+9cc9f                                                       ",
"                  ...     .@#$$$%&&&&&566777777775%-8d-@$$@.099gf                                                       ",
"                          .#%%%%%%&&&&>5b77777777>#8cc9 ...  dff                                                        ",
"                          .@#$$$$$$$$$;;>>>>>>>>>;+9cc9f                                                                ",
"                           ..+++++++++*@$$$$$$$$$@.0990f                                                                ",
"                                      11..........  fff                                                                 ",
"                                                                                                                        ",
"                                                                                                                        ",
"                                                                                                                        ",
"                                                                                                                        ",
"                                                                                                                        ",
"                                                                                                                        ",
"                                                                                                                        ",
"                                                                                                                        ",
"                                                                                                                        ",
"                                                                                                                        ",
"                                                                                                                        ",
"                                                                                                                        ",
"                                                                                                                        ",
"                                                                                                                        ",
"                                                                                                                        ",
"                                                                                                                        ",
"                                                                                                                        ",
"                                                                                                                        ",
"                                                                                                                        "};
